Land_normalized_Motion_pl15
version=1
nRows=12
nColumns=43
inDegrees=yes
endheader
time		pelvis_tilt		pelvis_list		pelvis_rotation		pelvis_tx		pelvis_ty		pelvis_tz		hip_flexion_r		hip_adduction_r		hip_rotation_r		knee_angle_r		ankle_angle_r		subtalar_angle_r		mtp_angle_r		hip_flexion_l		hip_adduction_l		hip_rotation_l		knee_angle_l		ankle_angle_l		subtalar_angle_l		mtp_angle_l		lumbar_extension		lumbar_bending		lumbar_rotation		neck_flexion		neck_lateral_bending		neck_rotation		arm_flex_r		arm_add_r		arm_rot_r		elbow_flex_r		pro_sup_r		wrist_flex_r		wrist_dev_r		hand_finger_flex_r		arm_flex_l		arm_add_l		arm_rot_l		elbow_flex_l		pro_sup_l		wrist_flex_l		wrist_dev_l		hand_finger_flex_l		
1.181667		-2.076064		1.010635		83.528604		0.013335		0.491920		0.519975		90.913503		1.003342		-0.145779		-130.108989		16.124815		0.728946		35.094303		84.553632		-16.064652		-2.039951		-129.548123		22.176535		10.802519		38.705062		-62.678252		-5.766860		0.740400		13.682063		-4.939338		1.324970		74.021034		-31.378118		23.353686		68.080023		118.866872		-14.160237		2.961920		34.328720		52.812218		-38.796873		6.857892		84.801535		98.956620		-19.566760		-2.439429		29.247441		
1.185025		-2.191510		0.883132		83.437974		0.013359		0.488412		0.519041		91.592496		0.956732		-0.033364		-130.676536		15.945911		0.967293		35.196337		85.240664		-16.134088		-1.994464		-130.158053		21.722623		10.646485		38.775466		-62.794390		-5.830570		0.754045		13.787988		-5.091004		1.357252		75.834691		-31.006098		24.361412		67.690602		118.841576		-14.098400		2.965164		34.429750		54.788815		-39.028932		7.840051		84.659535		98.776848		-19.303041		-2.370462		29.109049		
1.188384		-2.320447		0.775198		83.381957		0.013312		0.485013		0.518106		92.247263		0.851597		0.126644		-131.224042		15.754325		1.293570		35.365807		85.903162		-16.194224		-1.963715		-130.747580		21.305581		10.543893		38.850053		-62.898128		-5.874076		0.749793		13.822487		-5.239957		1.383096		77.572714		-30.616507		25.327108		67.280456		118.790495		-13.999081		2.972038		34.494433		56.721007		-39.171704		8.771360		84.446392		98.697972		-18.945352		-2.327444		28.978351		
1.191742		-2.444883		0.685756		83.360965		0.013185		0.481634		0.517140		92.888792		0.722618		0.314105		-131.785155		15.568218		1.720458		35.606821		86.544061		-16.219172		-1.925366		-131.331612		20.907523		10.479414		38.938766		-62.987529		-5.879667		0.750131		13.799524		-5.391852		1.392265		79.255721		-30.247900		26.308307		66.873041		118.689429		-13.889146		2.999470		34.541588		58.626442		-39.262031		9.717218		84.159821		98.660257		-18.542932		-2.319950		28.835013		
1.195101		-2.535897		0.604651		83.386373		0.012867		0.478289		0.516154		93.498340		0.570826		0.546147		-132.348196		15.429987		2.262483		35.932609		87.181588		-16.209443		-1.869637		-131.913171		20.534551		10.478101		39.045771		-63.060714		-5.813012		0.788547		13.744327		-5.530031		1.372268		80.899276		-29.917869		27.291519		66.470798		118.529853		-13.758785		3.075342		34.568043		60.502551		-39.263250		10.664185		83.781291		98.658163		-18.124818		-2.358661		28.681029		
1.198460		-2.599605		0.506250		83.428090		0.012567		0.475121		0.515270		94.085957		0.407312		0.737783		-132.851820		15.324406		2.835085		36.249860		87.821462		-16.168451		-1.728144		-132.445840		20.236379		10.543537		39.148009		-63.122481		-5.720511		0.833396		13.691781		-5.704244		1.352993		82.466078		-29.555736		28.182270		66.106230		118.389875		-13.579617		3.199184		34.586597		62.340320		-39.222652		11.563657		83.376140		98.714655		-17.724908		-2.395114		28.576791		
1.201818		-2.622997		0.406058		83.505916		0.012124		0.472038		0.514400		94.626090		0.259980		0.943377		-133.333219		15.289382		3.446520		36.568993		88.461761		-16.098599		-1.562071		-132.971040		19.961728		10.657593		39.251565		-63.177737		-5.562381		0.912987		13.650900		-5.869615		1.320223		84.000691		-29.221556		29.067062		65.765240		118.229478		-13.377926		3.349950		34.606059		64.143888		-39.135282		12.464751		82.938919		98.760065		-17.356521		-2.429315		28.499699		
1.205177		-2.623948		0.303787		83.601012		0.011629		0.469096		0.513572		95.117158		0.129528		1.150674		-133.778880		15.326695		4.068471		36.876322		89.084441		-16.009956		-1.368487		-133.473654		19.733371		10.809621		39.356795		-63.235854		-5.375893		1.005713		13.639655		-6.027372		1.276841		85.494388		-28.903671		29.934715		65.461162		118.024555		-13.185164		3.503316		34.625674		65.917214		-39.032338		13.369301		82.489887		98.771802		-17.030946		-2.457449		28.450926		
1.208535		-2.615092		0.205324		83.704694		0.011100		0.466337		0.512786		95.545452		0.025645		1.366823		-134.190606		15.446311		4.684848		37.176757		89.661175		-15.919265		-1.177844		-133.945478		19.568533		11.005999		39.471728		-63.303878		-5.180649		1.103818		13.676155		-6.154176		1.221456		86.945754		-28.604347		30.796591		65.188223		117.727206		-13.039836		3.628123		34.636390		67.661089		-38.931967		14.301831		82.038382		98.720135		-16.769874		-2.487960		28.423322		
1.211894		-2.623763		0.101802		83.789816		0.010626		0.463791		0.512073		95.933076		-0.063740		1.571877		-134.553531		15.618302		5.235363		37.440552		90.181161		-15.853293		-1.009978		-134.372957		19.473798		11.228148		39.585599		-63.383236		-5.022688		1.176428		13.758694		-6.251320		1.176378		88.356564		-28.277356		31.599020		64.922272		117.385201		-12.945788		3.689464		34.623120		69.375798		-38.849939		15.231190		81.606813		98.636983		-16.575967		-2.509515		28.415349		
1.215253		-2.653461		0.001678		83.856303		0.010209		0.461462		0.511409		96.268844		-0.145788		1.763620		-134.876257		15.843367		5.713730		37.671518		90.639172		-15.825593		-0.893150		-134.759321		19.443421		11.468071		39.699660		-63.477894		-4.906858		1.225768		13.886871		-6.302909		1.140962		89.719722		-27.924023		32.341540		64.649529		116.993157		-12.909614		3.672001		34.560827		71.059740		-38.782811		16.170785		81.200984		98.523586		-16.468650		-2.528219		28.413252		
1.218611		-2.706955		-0.092703		83.902613		0.009844		0.459334		0.510752		96.558461		-0.228408		1.930332		-135.168550		16.123004		6.113369		37.877714		91.022430		-15.833249		-0.830593		-135.105652		19.460456		11.704616		39.819666		-63.587302		-4.830917		1.252158		14.048112		-6.300881		1.114603		91.044857		-27.554216		33.043607		64.369473		116.537016		-12.934575		3.571650		34.411993		72.718877		-38.745041		17.159602		80.811392		98.375375		-16.471842		-2.543527		28.403417		
